<?xml version="1.0" encoding="UTF-8"?>
<svg xmlns="http://www.w3.org/2000/svg" xmlns:xlink="http://www.w3.org/1999/xlink" width="500pt" height="500pt" viewBox="0 0 500 500" version="1.1">
<g id="surface556">
<path style=" stroke:none;fill-rule:nonzero;fill:rgb(21.960784%,59.607843%,14.901961%);fill-opacity:1;" d="M 165.726562 361.082031 C 165.726562 375.886719 153.722656 387.890625 138.917969 387.890625 C 124.113281 387.890625 112.109375 375.886719 112.109375 361.082031 C 112.109375 346.277344 124.113281 334.273438 138.917969 334.273438 C 153.722656 334.273438 165.726562 346.277344 165.726562 361.082031 "/>
<path style=" stroke:none;fill-rule:nonzero;fill:rgb(21.960784%,59.607843%,14.901961%);fill-opacity:1;" d="M 204.207031 322.933594 C 204.207031 337.925781 192.054688 350.078125 177.066406 350.078125 C 162.074219 350.078125 149.921875 337.925781 149.921875 322.933594 C 149.921875 307.945312 162.074219 295.792969 177.066406 295.792969 C 192.054688 295.792969 204.207031 307.945312 204.207031 322.933594 "/>
<path style=" stroke:none;fill-rule:nonzero;fill:rgb(21.960784%,59.607843%,14.901961%);fill-opacity:1;" d="M 249.230469 281.800781 C 249.230469 298.9375 235.335938 312.832031 218.199219 312.832031 C 201.0625 312.832031 187.167969 298.9375 187.167969 281.800781 C 187.167969 264.664062 201.0625 250.769531 218.199219 250.769531 C 235.335938 250.769531 249.230469 264.664062 249.230469 281.800781 "/>
<path style=" stroke:none;fill-rule:nonzero;fill:rgb(21.960784%,59.607843%,14.901961%);fill-opacity:1;" d="M 289.621094 239.363281 C 289.621094 255.371094 276.644531 268.347656 260.636719 268.347656 C 244.628906 268.347656 231.652344 255.371094 231.652344 239.363281 C 231.652344 223.355469 244.628906 210.378906 260.636719 210.378906 C 276.644531 210.378906 289.621094 223.355469 289.621094 239.363281 "/>
<path style=" stroke:none;fill-rule:nonzero;fill:rgb(21.960784%,59.607843%,14.901961%);fill-opacity:1;" d="M 333.050781 197.363281 C 333.050781 214.160156 319.433594 227.777344 302.636719 227.777344 C 285.839844 227.777344 272.222656 214.160156 272.222656 197.363281 C 272.222656 180.566406 285.839844 166.949219 302.636719 166.949219 C 319.433594 166.949219 333.050781 180.566406 333.050781 197.363281 "/>
<path style=" stroke:none;fill-rule:nonzero;fill:rgb(21.960784%,59.607843%,14.901961%);fill-opacity:1;" d="M 368.417969 157.515625 C 368.417969 171.839844 356.808594 183.453125 342.484375 183.453125 C 328.160156 183.453125 316.546875 171.839844 316.546875 157.515625 C 316.546875 143.191406 328.160156 131.582031 342.484375 131.582031 C 356.808594 131.582031 368.417969 143.191406 368.417969 157.515625 "/>
<path style=" stroke:none;fill-rule:nonzero;fill:rgb(21.960784%,59.607843%,14.901961%);fill-opacity:1;" d="M 403.601562 121.457031 C 403.601562 135.296875 392.382812 146.519531 378.542969 146.519531 C 364.703125 146.519531 353.480469 135.296875 353.480469 121.457031 C 353.480469 107.617188 364.703125 96.398438 378.542969 96.398438 C 392.382812 96.398438 403.601562 107.617188 403.601562 121.457031 "/>
<path style=" stroke:none;fill-rule:nonzero;fill:rgb(21.960784%,59.607843%,14.901961%);fill-opacity:1;" d="M 427.832031 90.660156 C 427.832031 100.875 419.554688 109.152344 409.339844 109.152344 C 399.125 109.152344 390.847656 100.875 390.847656 90.660156 C 390.847656 80.445312 399.125 72.167969 409.339844 72.167969 C 419.554688 72.167969 427.832031 80.445312 427.832031 90.660156 "/>
<path style=" stroke:none;fill-rule:nonzero;fill:rgb(21.960784%,59.607843%,14.901961%);fill-opacity:1;" d="M 449.449219 66.386719 C 449.449219 75.132812 442.359375 82.222656 433.613281 82.222656 C 424.867188 82.222656 417.777344 75.132812 417.777344 66.386719 C 417.777344 57.640625 424.867188 50.550781 433.613281 50.550781 C 442.359375 50.550781 449.449219 57.640625 449.449219 66.386719 "/>
<path style=" stroke:none;fill-rule:nonzero;fill:rgb(21.960784%,59.607843%,14.901961%);fill-opacity:1;" d="M 458.230469 49.628906 C 458.230469 53.972656 454.710938 57.492188 450.371094 57.492188 C 446.027344 57.492188 442.507812 53.972656 442.507812 49.628906 C 442.507812 45.289062 446.027344 41.769531 450.371094 41.769531 C 454.710938 41.769531 458.230469 45.289062 458.230469 49.628906 "/>
<path style=" stroke:none;fill-rule:nonzero;fill:rgb(21.960784%,59.607843%,14.901961%);fill-opacity:1;" d="M 463.15625 41.078125 C 463.15625 46.722656 454.6875 46.722656 454.6875 41.078125 C 454.6875 35.433594 463.15625 35.433594 463.15625 41.078125 "/>
<path style=" stroke:none;fill-rule:nonzero;fill:rgb(58.431373%,34.509804%,69.803922%);fill-opacity:1;" d="M 65.074219 434.382812 C 65.074219 446.246094 55.457031 455.863281 43.59375 455.863281 C 31.730469 455.863281 22.113281 446.246094 22.113281 434.382812 C 22.113281 422.519531 31.730469 412.902344 43.59375 412.902344 C 55.457031 412.902344 65.074219 422.519531 65.074219 434.382812 "/>
<path style=" stroke:none;fill-rule:nonzero;fill:rgb(58.431373%,34.509804%,69.803922%);fill-opacity:1;" d="M 101.980469 366.003906 C 101.980469 392.363281 80.613281 413.730469 54.253906 413.730469 C 27.894531 413.730469 6.527344 392.363281 6.527344 366.003906 C 6.527344 339.644531 27.894531 318.277344 54.253906 318.277344 C 80.613281 318.277344 101.980469 339.644531 101.980469 366.003906 "/>
<path style=" stroke:none;fill-rule:nonzero;fill:rgb(58.431373%,34.509804%,69.803922%);fill-opacity:1;" d="M 114.453125 277.121094 C 114.453125 300.777344 95.273438 319.957031 71.617188 319.957031 C 47.960938 319.957031 28.785156 300.777344 28.785156 277.121094 C 28.785156 253.464844 47.960938 234.285156 71.617188 234.285156 C 95.273438 234.285156 114.453125 253.464844 114.453125 277.121094 "/>
<path style=" stroke:none;fill-rule:nonzero;fill:rgb(58.431373%,34.509804%,69.803922%);fill-opacity:1;" d="M 137.042969 195.652344 C 137.042969 218.820312 118.261719 237.601562 95.09375 237.601562 C 71.925781 237.601562 53.144531 218.820312 53.144531 195.652344 C 53.144531 172.488281 71.925781 153.707031 95.09375 153.707031 C 118.261719 153.707031 137.042969 172.488281 137.042969 195.652344 "/>
<path style=" stroke:none;fill-rule:nonzero;fill:rgb(58.431373%,34.509804%,69.803922%);fill-opacity:1;" d="M 139.863281 145.382812 C 139.863281 154.210938 132.707031 161.367188 123.882812 161.367188 C 115.054688 161.367188 107.898438 154.210938 107.898438 145.382812 C 107.898438 136.558594 115.054688 129.402344 123.882812 129.402344 C 132.707031 129.402344 139.863281 136.558594 139.863281 145.382812 "/>
<path style=" stroke:none;fill-rule:nonzero;fill:rgb(58.431373%,34.509804%,69.803922%);fill-opacity:1;" d="M 174.867188 138.410156 C 174.867188 148.277344 166.867188 156.273438 157.003906 156.273438 C 147.136719 156.273438 139.136719 148.277344 139.136719 138.410156 C 139.136719 128.542969 147.136719 120.542969 157.003906 120.542969 C 166.867188 120.542969 174.867188 128.542969 174.867188 138.410156 "/>
<path style=" stroke:none;fill-rule:nonzero;fill:rgb(58.431373%,34.509804%,69.803922%);fill-opacity:1;" d="M 225.3125 172.550781 C 225.3125 190.214844 210.992188 204.535156 193.328125 204.535156 C 175.660156 204.535156 161.339844 190.214844 161.339844 172.550781 C 161.339844 154.886719 175.660156 140.5625 193.328125 140.5625 C 210.992188 140.5625 225.3125 154.886719 225.3125 172.550781 "/>
<path style=" stroke:none;fill-rule:nonzero;fill:rgb(58.431373%,34.509804%,69.803922%);fill-opacity:1;" d="M 272.207031 234.199219 C 272.207031 256.617188 254.035156 274.789062 231.617188 274.789062 C 209.203125 274.789062 191.03125 256.617188 191.03125 234.199219 C 191.03125 211.785156 209.203125 193.613281 231.617188 193.613281 C 254.035156 193.613281 272.207031 211.785156 272.207031 234.199219 "/>
<path style=" stroke:none;fill-rule:nonzero;fill:rgb(58.431373%,34.509804%,69.803922%);fill-opacity:1;" d="M 310.632812 304.8125 C 310.632812 326.933594 292.695312 344.867188 270.574219 344.867188 C 248.453125 344.867188 230.519531 326.933594 230.519531 304.8125 C 230.519531 282.6875 248.453125 264.753906 270.574219 264.753906 C 292.695312 264.753906 310.632812 282.6875 310.632812 304.8125 "/>
<path style=" stroke:none;fill-rule:nonzero;fill:rgb(58.431373%,34.509804%,69.803922%);fill-opacity:1;" d="M 342.660156 367.957031 C 342.660156 386.621094 327.53125 401.753906 308.867188 401.753906 C 290.203125 401.753906 275.074219 386.621094 275.074219 367.957031 C 275.074219 349.292969 290.203125 334.164062 308.867188 334.164062 C 327.53125 334.164062 342.660156 349.292969 342.660156 367.957031 "/>
<path style=" stroke:none;fill-rule:nonzero;fill:rgb(58.431373%,34.509804%,69.803922%);fill-opacity:1;" d="M 370.121094 414.097656 C 370.121094 427.863281 358.960938 439.027344 345.195312 439.027344 C 331.425781 439.027344 320.265625 427.863281 320.265625 414.097656 C 320.265625 400.328125 331.425781 389.167969 345.195312 389.167969 C 358.960938 389.167969 370.121094 400.328125 370.121094 414.097656 "/>
<path style=" stroke:none;fill-rule:nonzero;fill:rgb(58.431373%,34.509804%,69.803922%);fill-opacity:1;" d="M 396.445312 441.601562 C 396.445312 451.613281 388.328125 459.726562 378.316406 459.726562 C 368.308594 459.726562 360.191406 451.613281 360.191406 441.601562 C 360.191406 431.589844 368.308594 423.476562 378.316406 423.476562 C 388.328125 423.476562 396.445312 431.589844 396.445312 441.601562 "/>
<path style=" stroke:none;fill-rule:nonzero;fill:rgb(58.431373%,34.509804%,69.803922%);fill-opacity:1;" d="M 420.554688 454.542969 C 420.554688 461.964844 414.539062 467.984375 407.113281 467.984375 C 399.6875 467.984375 393.671875 461.964844 393.671875 454.542969 C 393.671875 447.117188 399.6875 441.097656 407.113281 441.097656 C 414.539062 441.097656 420.554688 447.117188 420.554688 454.542969 "/>
<path style=" stroke:none;fill-rule:nonzero;fill:rgb(58.431373%,34.509804%,69.803922%);fill-opacity:1;" d="M 441.074219 458.984375 C 441.074219 464.765625 436.386719 469.453125 430.605469 469.453125 C 424.824219 469.453125 420.140625 464.765625 420.140625 458.984375 C 420.140625 453.207031 424.824219 448.519531 430.605469 448.519531 C 436.386719 448.519531 441.074219 453.207031 441.074219 458.984375 "/>
<path style=" stroke:none;fill-rule:nonzero;fill:rgb(58.431373%,34.509804%,69.803922%);fill-opacity:1;" d="M 455.003906 459.925781 C 455.003906 463.777344 451.878906 466.902344 448.027344 466.902344 C 444.171875 466.902344 441.046875 463.777344 441.046875 459.925781 C 441.046875 456.070312 444.171875 452.945312 448.027344 452.945312 C 451.878906 452.945312 455.003906 456.070312 455.003906 459.925781 "/>
<path style=" stroke:none;fill-rule:nonzero;fill:rgb(79.607843%,23.529412%,20%);fill-opacity:1;" d="M 58.421875 428.136719 C 58.421875 436.917969 51.304688 444.039062 42.523438 444.039062 C 33.738281 444.039062 26.621094 436.917969 26.621094 428.136719 C 26.621094 419.355469 33.738281 412.234375 42.523438 412.234375 C 51.304688 412.234375 58.421875 419.355469 58.421875 428.136719 "/>
<path style=" stroke:none;fill-rule:nonzero;fill:rgb(79.607843%,23.529412%,20%);fill-opacity:1;" d="M 79.675781 387.09375 C 79.675781 401.730469 67.808594 413.59375 53.171875 413.59375 C 38.535156 413.59375 26.671875 401.730469 26.671875 387.09375 C 26.671875 372.457031 38.535156 360.59375 53.171875 360.59375 C 67.808594 360.59375 79.675781 372.457031 79.675781 387.09375 "/>
<path style=" stroke:none;fill-rule:nonzero;fill:rgb(79.607843%,23.529412%,20%);fill-opacity:1;" d="M 87.835938 348.972656 C 87.835938 357.789062 80.691406 364.933594 71.875 364.933594 C 63.0625 364.933594 55.914062 357.789062 55.914062 348.972656 C 55.914062 340.15625 63.0625 333.011719 71.875 333.011719 C 80.691406 333.011719 87.835938 340.15625 87.835938 348.972656 "/>
<path style=" stroke:none;fill-rule:nonzero;fill:rgb(79.607843%,23.529412%,20%);fill-opacity:1;" d="M 124.378906 315.390625 C 124.378906 330.03125 112.511719 341.898438 97.871094 341.898438 C 83.234375 341.898438 71.367188 330.03125 71.367188 315.390625 C 71.367188 300.753906 83.234375 288.882812 97.871094 288.882812 C 112.511719 288.882812 124.378906 300.753906 124.378906 315.390625 "/>
<path style=" stroke:none;fill-rule:nonzero;fill:rgb(79.607843%,23.529412%,20%);fill-opacity:1;" d="M 146.058594 287.730469 C 146.058594 296.542969 138.910156 303.691406 130.097656 303.691406 C 121.28125 303.691406 114.132812 296.542969 114.132812 287.730469 C 114.132812 278.914062 121.28125 271.765625 130.097656 271.765625 C 138.910156 271.765625 146.058594 278.914062 146.058594 287.730469 "/>
<path style=" stroke:none;fill-rule:nonzero;fill:rgb(79.607843%,23.529412%,20%);fill-opacity:1;" d="M 193.734375 267.117188 C 193.734375 281.757812 181.867188 293.625 167.226562 293.625 C 152.589844 293.625 140.722656 281.757812 140.722656 267.117188 C 140.722656 252.480469 152.589844 240.613281 167.226562 240.613281 C 181.867188 240.613281 193.734375 252.480469 193.734375 267.117188 "/>
<path style=" stroke:none;fill-rule:nonzero;fill:rgb(79.607843%,23.529412%,20%);fill-opacity:1;" d="M 223.710938 254.40625 C 223.710938 263.222656 216.566406 270.367188 207.75 270.367188 C 198.933594 270.367188 191.785156 263.222656 191.785156 254.40625 C 191.785156 245.589844 198.933594 238.441406 207.75 238.441406 C 216.566406 238.441406 223.710938 245.589844 223.710938 254.40625 "/>
<path style=" stroke:none;fill-rule:nonzero;fill:rgb(79.607843%,23.529412%,20%);fill-opacity:1;" d="M 276.507812 250.109375 C 276.507812 264.75 264.640625 276.617188 250 276.617188 C 235.359375 276.617188 223.492188 264.75 223.492188 250.109375 C 223.492188 235.46875 235.359375 223.601562 250 223.601562 C 264.640625 223.601562 276.507812 235.46875 276.507812 250.109375 "/>
<path style=" stroke:none;fill-rule:nonzero;fill:rgb(79.607843%,23.529412%,20%);fill-opacity:1;" d="M 308.214844 254.40625 C 308.214844 263.222656 301.066406 270.367188 292.25 270.367188 C 283.433594 270.367188 276.289062 263.222656 276.289062 254.40625 C 276.289062 245.589844 283.433594 238.441406 292.25 238.441406 C 301.066406 238.441406 308.214844 245.589844 308.214844 254.40625 "/>
<path style=" stroke:none;fill-rule:nonzero;fill:rgb(79.607843%,23.529412%,20%);fill-opacity:1;" d="M 359.277344 267.117188 C 359.277344 281.757812 347.410156 293.625 332.773438 293.625 C 318.132812 293.625 306.265625 281.757812 306.265625 267.117188 C 306.265625 252.480469 318.132812 240.613281 332.773438 240.613281 C 347.410156 240.613281 359.277344 252.480469 359.277344 267.117188 "/>
<path style=" stroke:none;fill-rule:nonzero;fill:rgb(79.607843%,23.529412%,20%);fill-opacity:1;" d="M 385.867188 287.730469 C 385.867188 296.542969 378.71875 303.691406 369.902344 303.691406 C 361.089844 303.691406 353.941406 296.542969 353.941406 287.730469 C 353.941406 278.914062 361.089844 271.765625 369.902344 271.765625 C 378.71875 271.765625 385.867188 278.914062 385.867188 287.730469 "/>
<path style=" stroke:none;fill-rule:nonzero;fill:rgb(79.607843%,23.529412%,20%);fill-opacity:1;" d="M 428.632812 315.390625 C 428.632812 330.03125 416.765625 341.898438 402.128906 341.898438 C 387.488281 341.898438 375.621094 330.03125 375.621094 315.390625 C 375.621094 300.753906 387.488281 288.882812 402.128906 288.882812 C 416.765625 288.882812 428.632812 300.753906 428.632812 315.390625 "/>
<path style=" stroke:none;fill-rule:nonzero;fill:rgb(79.607843%,23.529412%,20%);fill-opacity:1;" d="M 444.085938 348.972656 C 444.085938 357.789062 436.9375 364.933594 428.125 364.933594 C 419.308594 364.933594 412.164062 357.789062 412.164062 348.972656 C 412.164062 340.15625 419.308594 333.011719 428.125 333.011719 C 436.9375 333.011719 444.085938 340.15625 444.085938 348.972656 "/>
<path style=" stroke:none;fill-rule:nonzero;fill:rgb(79.607843%,23.529412%,20%);fill-opacity:1;" d="M 473.328125 387.09375 C 473.328125 401.730469 461.464844 413.59375 446.828125 413.59375 C 432.191406 413.59375 420.324219 401.730469 420.324219 387.09375 C 420.324219 372.457031 432.191406 360.59375 446.828125 360.59375 C 461.464844 360.59375 473.328125 372.457031 473.328125 387.09375 "/>
<path style=" stroke:none;fill-rule:nonzero;fill:rgb(79.607843%,23.529412%,20%);fill-opacity:1;" d="M 473.378906 428.136719 C 473.378906 436.917969 466.261719 444.039062 457.476562 444.039062 C 448.695312 444.039062 441.578125 436.917969 441.578125 428.136719 C 441.578125 419.355469 448.695312 412.234375 457.476562 412.234375 C 466.261719 412.234375 473.378906 419.355469 473.378906 428.136719 "/>
<path style=" stroke:none;fill-rule:nonzero;fill:rgb(21.960784%,59.607843%,14.901961%);fill-opacity:1;" d="M 51.554688 455.703125 C 51.554688 459.710938 48.308594 462.957031 44.296875 462.957031 C 40.289062 462.957031 37.042969 459.710938 37.042969 455.703125 C 37.042969 451.691406 40.289062 448.445312 44.296875 448.445312 C 48.308594 448.445312 51.554688 451.691406 51.554688 455.703125 "/>
<path style=" stroke:none;fill-rule:nonzero;fill:rgb(21.960784%,59.607843%,14.901961%);fill-opacity:1;" d="M 67.75 442.980469 C 67.75 448.90625 62.945312 453.710938 57.019531 453.710938 C 51.09375 453.710938 46.289062 448.90625 46.289062 442.980469 C 46.289062 437.054688 51.09375 432.25 57.019531 432.25 C 62.945312 432.25 67.75 437.054688 67.75 442.980469 "/>
<path style=" stroke:none;fill-rule:nonzero;fill:rgb(21.960784%,59.607843%,14.901961%);fill-opacity:1;" d="M 96.070312 422.359375 C 96.070312 432.539062 87.820312 440.792969 77.640625 440.792969 C 67.460938 440.792969 59.207031 432.539062 59.207031 422.359375 C 59.207031 412.179688 67.460938 403.929688 77.640625 403.929688 C 87.820312 403.929688 96.070312 412.179688 96.070312 422.359375 "/>
<path style=" stroke:none;fill-rule:nonzero;fill:rgb(21.960784%,59.607843%,14.901961%);fill-opacity:1;" d="M 126.027344 394.683594 C 126.027344 406.121094 116.753906 415.394531 105.316406 415.394531 C 93.878906 415.394531 84.605469 406.121094 84.605469 394.683594 C 84.605469 383.246094 93.878906 373.972656 105.316406 373.972656 C 116.753906 373.972656 126.027344 383.246094 126.027344 394.683594 "/>
</g>
</svg>
